<svg xmlns="http://www.w3.org/2000/svg" xmlns:xlink="http://www.w3.org/1999/xlink" x="0px" y="0px" width="64px" height="64px" viewBox="0 0 64 64"><g  transform="translate(0, 0)">
<path fill="#ff4081" d="M7,43h50V6c0-0.552-0.448-1-1-1H34V2c0-0.552-0.448-1-1-1h-2c-0.552,0-1,0.448-1,1v3H8C7.448,5,7,5.448,7,6&#10;&#9;V43z"/>
<path data-color="color-2" fill="#ff4081" d="M62,45H2c-0.553,0-1,0.448-1,1v2c0,0.552,0.447,1,1,1h21.826L13.241,61.349&#10;&#9;c-0.36,0.419-0.312,1.051,0.108,1.41C13.538,62.921,13.77,63,14,63c0.281,0,0.562-0.119,0.759-0.349L26.46,49H31v11&#10;&#9;c0,0.552,0.447,1,1,1s1-0.448,1-1V49h4.54l11.701,13.651C49.438,62.881,49.719,63,50,63c0.23,0,0.462-0.079,0.65-0.241&#10;&#9;c0.42-0.359,0.469-0.991,0.108-1.41L40.174,49H62c0.553,0,1-0.448,1-1v-2C63,45.448,62.553,45,62,45z"/>
</g></svg>