<svg xmlns="http://www.w3.org/2000/svg" xmlns:xlink="http://www.w3.org/1999/xlink" x="0px" y="0px" width="64px" height="64px" viewBox="0 0 64 64"><g  transform="translate(0, 0)">
<path data-color="color-2" fill="#ff4081" d="M8,63c-0.5527344,0-1-0.4477539-1-1V2c0-0.5522461,0.4472656-1,1-1s1,0.4477539,1,1v60&#10;&#9;C9,62.5522461,8.5527344,63,8,63z"/>
<path fill="#ff4081" d="M56,5H12c-0.5527344,0-1,0.4477539-1,1v33c0,0.5522461,0.4472656,1,1,1h44c0.5527344,0,1-0.4477539,1-1V6&#10;&#9;C57,5.4477539,56.5527344,5,56,5z M22,38h-9v-9h9V38z M22,16h-9V7h9V16z M33,27h-9v-9h9V27z M44,38h-9v-9h9V38z M44,16h-9V7h9V16z&#10;&#9; M55,27h-9v-9h9V27z"/>
</g></svg>